<svg width="386" height="386" viewBox="0 0 386 386" fill="none" xmlns="http://www.w3.org/2000/svg">
<rect width="386" height="386" fill="#191919"/>
<path d="M182.948 73.2953L53 321.544C58.8496 330.28 70.0011 331.098 79.8698 329.362C89.6546 327.64 97.8523 321.453 105.938 315.679C177.836 264.338 255.87 300.51 287.286 324.958C309.229 339.523 326.905 331.027 333 324.958C262.218 238.425 174.487 246.666 133.715 263.808C132.861 264.167 132.019 263.272 132.41 262.432L197.954 121.699L258.835 240.046L262.381 242.085C277.344 250.693 291.084 261.269 303.234 273.531L315.857 286.269L204.207 73.2889C199.713 64.7147 187.437 64.7184 182.948 73.2953Z" fill="white"/>
</svg>
